<svg version="1.1" xmlns="http://www.w3.org/2000/svg" style="display: block;" viewBox="0 0 2048 2048" width="40" height="40" preserveAspectRatio="none">
<path transform="translate(0,0)" fill="rgb(254,254,254)" d="M 1039.7 686.4 C 1067.28 681.576 1109.86 694.614 1133.84 708.919 C 1169.87 730.768 1195.71 766.061 1205.67 807.002 C 1213.71 840.064 1211.1 892.349 1209.85 927.033 C 1209.1 947.803 1189.84 963.753 1169.5 968.492 C 1166.69 978.861 1164.49 985.332 1160.23 995.116 L 1226.16 995.026 C 1241.13 995.009 1267.76 993.835 1281.25 997.913 C 1293.56 1001.52 1303.83 1010.08 1309.59 1021.54 C 1322.79 1047.46 1309.52 1076.61 1302 1102.6 C 1294.46 1129.28 1286.65 1155.89 1278.58 1182.41 C 1292.92 1201.1 1302.59 1220.03 1308.8 1242.9 C 1333.09 1242.46 1359.61 1237.45 1359.84 1270.61 C 1360.09 1306.25 1334.64 1300.47 1309.15 1300.47 L 1254.97 1300.46 L 1066.5 1300.43 L 859.992 1300.45 L 797.741 1300.52 C 786.774 1300.52 771.35 1300.97 760.871 1299.63 C 741.371 1296.11 739.285 1260.34 751.133 1249.13 C 760.753 1240.02 782.195 1242.64 795.164 1242.89 C 799.695 1221.67 811.453 1200.78 824.262 1183.51 C 817.328 1153.94 807.076 1124.13 799.287 1094.66 C 791.342 1064.61 776.788 1034.75 803.866 1008.64 C 809.758 1002.94 817.073 998.933 825.046 997.028 C 837.194 994.174 864.082 995.035 877.527 995.074 L 943.365 995.095 C 939.778 986.81 936.93 978.224 934.854 969.438 C 883.075 951.712 894.885 923.108 893.168 879.592 C 891.166 828.871 894.046 787.385 927.433 745.877 C 956.791 709.378 993.61 691.656 1039.7 686.4 z M 1055.5 995.141 C 1082.76 995.114 1117.17 994.129 1143.85 995.488 C 1163.15 953.342 1156.09 932.789 1157.29 887.249 C 1123.17 885.863 1087.72 875.178 1064.07 849.393 C 1060.69 845.701 1055.73 839.105 1050.65 838.55 C 1043.69 844.067 1039.23 851.1 1032.76 856.589 C 1009.67 876.164 976.704 886.721 946.692 887.299 C 946.499 927.722 941.815 958.917 959.84 995.161 L 1055.5 995.141 z M 1127.72 1198.1 C 1136.16 1189.59 1166.48 1153.15 1169.5 1142.99 C 1168.14 1130.61 1137.85 1097.75 1128.74 1086.61 C 1127.13 1084.65 1121.07 1084.22 1118.24 1083.92 C 1106.98 1088.65 1102.17 1097.73 1109.67 1108.74 C 1117.42 1120.13 1127.19 1131.08 1135.78 1142.02 C 1127.56 1151.89 1105.38 1174.54 1106.26 1187.41 C 1106.95 1197.65 1118.21 1200.96 1127.72 1198.1 z M 980.752 1199.58 C 1020.43 1195.93 977.377 1153.86 967.838 1141.71 C 977.46 1129.37 1019.81 1087.43 981.725 1083.92 C 968.756 1087.55 946.861 1121.92 937.597 1133.29 C 936.208 1135 933.269 1142.26 934.432 1144.43 C 941.097 1156.86 969.375 1196 980.752 1199.58 z M 1047.28 1199.08 C 1049.29 1197.7 1054.18 1194.35 1054.88 1191.9 C 1060.95 1170.44 1065.43 1148.26 1070.52 1126.48 C 1074.36 1110.06 1085.27 1081.32 1056.21 1085.15 C 1054.43 1086.32 1049.88 1089.29 1049.23 1091.39 C 1040.91 1118.31 1036.14 1146.78 1029.37 1174.2 C 1025.31 1190.64 1028.45 1200.49 1047.28 1199.08 z M 829.41 1201.65 C 821.076 1215.25 814.965 1227.56 810.077 1242.84 L 823.5 1242.84 L 842 1242.87 C 840.347 1237.14 831.58 1203.8 829.41 1201.65 z M 919.472 946.31 C 923.422 949.83 927.329 951.403 932.121 953.654 C 932.003 945.004 932.864 895.494 931.227 890.214 L 929.75 889.893 C 905.525 902.385 900.536 926.182 919.472 946.31 z M 1273.64 1201.68 C 1270.03 1213.62 1265.46 1231.93 1261.39 1242.8 L 1282.77 1242.84 L 1293.75 1242.83 C 1290.08 1232.59 1281.25 1208.92 1273.64 1201.68 z M 1186.77 943.741 C 1193.01 935.066 1196.74 927.702 1195.16 916.334 C 1193.89 907.54 1189.09 899.641 1181.87 894.463 C 1178.49 891.99 1175.83 890.746 1172.03 889.105 C 1172.16 910.584 1172.13 932.063 1171.95 953.541 C 1177.59 950.721 1182.32 948.466 1186.77 943.741 z"/>
<path transform="translate(0,0)" fill="rgb(254,254,254)" d="M 994.859 888.054 C 1009.63 886.74 1018.91 889.523 1027.88 902.034 C 1047.84 898.917 1056.21 899.492 1075.94 901.824 C 1089.25 882.771 1114.89 881.595 1128.09 901.437 C 1132.99 908.724 1134.62 917.723 1132.59 926.263 C 1127.81 946.772 1110.72 952.949 1091.69 948.345 C 1075.56 940.005 1073.23 932.846 1069.81 916.049 C 1057.73 913.869 1046 914.404 1033.93 915.97 C 1029.83 938.107 1014.88 957.809 990.227 947.764 C 982.104 944.387 975.672 937.894 972.373 929.739 C 964.48 909.901 976.026 894.287 994.859 888.054 z"/>
<path transform="translate(0,0)" fill="rgb(254,254,254)" d="M 1243.04 1410.25 C 1277.21 1408.77 1302.68 1414.08 1331.59 1434.49 C 1388.76 1476.78 1424.06 1553.43 1436.85 1621.72 C 1454.51 1715.94 1408.09 1787.53 1312.64 1803.02 C 1281.72 1803.88 1252.69 1800.37 1226.39 1781.45 C 1144.33 1722.41 1077.98 1560.82 1138.6 1469.23 C 1161.49 1434.63 1204.48 1417.83 1243.04 1410.25 z M 1309.25 1743.53 C 1415.52 1734.71 1352.41 1595.65 1325.32 1542.14 C 1309.25 1510.4 1282.66 1468.82 1242.53 1470.36 C 1190 1478.68 1177.6 1515.01 1189.04 1563.41 C 1201.62 1616.62 1244.71 1742.18 1309.25 1743.53 z"/>
<path transform="translate(0,0)" fill="rgb(254,254,254)" d="M 472.705 1108.44 C 492.888 1107.01 513.145 1109.82 532.182 1116.67 C 614.771 1147.29 635.395 1239.41 669.461 1312.76 L 415.662 1420.88 C 382.641 1435.12 349.546 1449.19 316.379 1463.09 C 309.258 1448.42 303.491 1432.52 296.795 1417.79 C 264.588 1346.91 231.367 1259.58 290.832 1192.51 C 333.032 1144.91 410.009 1113.42 472.705 1108.44 z M 338.334 1371.06 C 351.85 1365.46 383.334 1353.03 395.311 1346.74 C 458.959 1319.83 523.619 1291.2 587.42 1265.13 C 574.116 1234.19 564.108 1203.15 529.79 1189.39 C 519.119 1185.11 496.37 1181.74 485.665 1184.39 C 456.216 1186.91 429.482 1197.45 402.896 1209.26 C 361.537 1227.64 313.757 1258.34 318.314 1309.95 C 320.415 1333.74 330.424 1349.71 338.334 1371.06 z"/>
<path transform="translate(0,0)" fill="rgb(254,254,254)" d="M 1745.25 577.948 C 1751 578.66 1789.14 680.877 1793.07 692.351 C 1825.82 788.923 1784.93 861.193 1694.23 901.377 C 1622.62 933.104 1553.67 949.813 1486.57 897.595 C 1452.96 871.614 1432.34 819.579 1416.54 781.588 C 1408.56 762.562 1400.71 743.484 1392.99 724.355 L 1745.25 577.948 z M 1474.2 773.002 C 1484.4 797.37 1492.49 822.645 1514.02 839.285 C 1535.9 854.796 1564.86 858.596 1590.48 852.722 C 1650.79 838.894 1760.26 798.841 1742.03 718.672 C 1739.8 708.882 1728.79 676.29 1723.45 668.889 C 1700.72 680.21 1661.52 695.192 1637.29 705.259 L 1474.2 773.002 z"/>
<path transform="translate(0,0)" fill="rgb(254,254,254)" d="M 363.587 606.381 C 364.436 606.354 365.286 606.344 366.136 606.348 C 387.699 606.493 416.097 616.626 430.908 632.598 C 452.568 655.958 453.869 681.111 453.109 710.933 C 468.132 689.285 481.959 672.275 507.285 663.239 C 553.548 646.733 613.901 679.354 629.06 725.416 C 647.352 780.996 618.346 841.021 596.877 891.632 C 587.155 914.548 577.826 938.654 567.21 960.9 L 546.688 952.162 L 214.066 811.882 C 222.01 791.384 231.085 770.417 239.83 750.18 C 265.1 691.707 289.93 614.109 363.587 606.381 z M 437.663 823.122 C 464.24 834.285 492.126 845.533 518.373 857.224 C 526.916 860.811 536.067 864.462 544.469 868.251 C 563.42 826.89 597.179 761.793 537.022 738.412 C 523.612 733.2 515.018 732.024 500.637 733.165 C 461.808 746.108 452.763 788.599 437.663 823.122 z M 295.287 763.033 L 363.238 791.694 L 388.09 802.299 C 398.068 777.977 419.051 740.973 409.224 714.595 C 402.043 695.32 374.069 682.122 353.96 683.393 C 318.468 690.282 308.718 734.4 295.287 763.033 z"/>
<path transform="translate(0,0)" fill="rgb(254,254,254)" d="M 710.792 1371.06 C 727.418 1376.54 775.591 1396.46 791.363 1403.91 C 794.954 1421.99 797.909 1446.23 800.71 1464.78 L 817.717 1578.98 C 827.259 1582.19 840.376 1587.91 849.974 1591.81 C 870.214 1547.2 887.288 1495.2 907.688 1450.74 C 930.954 1460.22 954.89 1469.4 977.833 1479.53 L 879.982 1720.44 C 864.473 1757.83 849.698 1797.57 833.428 1834.41 C 814.42 1827.58 794.355 1818.83 775.594 1811.16 C 714.296 1786.11 621.986 1756.66 619.585 1677.01 C 618.74 1648.95 632.643 1613.24 652.459 1593.23 C 677.782 1567.44 710.866 1562.57 745.553 1562.34 C 737.054 1510.34 725.567 1458.19 716.756 1406.19 C 714.756 1394.39 712.374 1382.99 710.792 1371.06 z M 782.748 1754.51 C 786.063 1751.87 825.561 1652.66 829.498 1642.1 C 803.794 1631 773.925 1615.46 745.925 1619.29 C 714.028 1624.26 694.81 1662.71 697.714 1692.09 C 701.073 1726.08 755.667 1744.72 782.748 1754.51 z"/>
<path transform="translate(0,0)" fill="rgb(254,254,254)" d="M 778.752 232.393 C 805.291 227.445 845.28 239.39 862.787 260.174 C 912.584 319.291 905.182 377.686 851.259 428.306 C 901.634 466.505 960.031 502.35 1010.37 540.793 C 991.286 550.481 951.08 565.469 930.17 573.97 C 913.871 562.494 896.222 548.618 880.147 536.523 L 788.552 467.407 C 781.187 470.327 762.012 477.543 756.42 481.278 C 759.43 489.713 763.175 499.007 766.801 507.178 C 783.326 544.415 796.928 584.696 814.226 621.416 C 792.059 631.399 766.528 641.262 743.83 650.561 C 738.415 639.258 731.826 621.787 726.948 609.916 L 695.326 532.897 L 598.06 295.982 C 609.841 289.822 635.044 280.289 648.142 274.945 C 693.121 256.595 729.862 238.532 778.752 232.393 z M 689.332 317.917 C 703.358 354.007 722.79 395.406 735.362 430.742 C 740.706 428.495 746.358 426.227 751.63 423.887 C 794.765 407.387 838.125 386.167 814.394 330.132 C 801.705 300.17 788.226 292.737 756.099 294.274 C 733.731 298.608 710.075 308.288 689.332 317.917 z"/>
<path transform="translate(0,0)" fill="rgb(254,254,254)" d="M 1306.45 231.824 C 1334.6 242.737 1364.68 255.961 1392.7 267.701 C 1391.02 293.827 1387.88 321.788 1385.47 348.018 L 1372.06 493.855 L 1362.03 603.525 C 1360.18 623.777 1358.53 647.819 1355.71 667.638 C 1332.3 658.875 1304.5 646.597 1281.3 636.654 C 1284.37 608.271 1288.31 575.243 1292.93 547.151 C 1274.95 538.261 1245.79 527.067 1226.75 519.219 C 1209.96 512.362 1193.26 505.313 1176.63 498.075 C 1160.73 519.878 1137.69 548.975 1120.56 569.868 C 1096.97 560.086 1071.64 550.009 1048.49 539.545 C 1054.61 530.398 1071.11 511.699 1078.6 502.787 L 1135.87 434.666 C 1192 367.821 1249.27 297.351 1306.45 231.824 z M 1211.34 449.95 C 1219.76 454.887 1229.59 458.121 1238.54 462.142 C 1258.82 470.246 1281.35 480.676 1301.41 487.973 C 1304.63 467.819 1326.45 313.483 1324.75 303.806 C 1287.26 352.761 1249.45 401.477 1211.34 449.95 z"/>
<path transform="translate(0,0)" fill="rgb(254,254,254)" d="M 1482.15 1094.35 L 1711.71 1188.85 C 1752.24 1205.53 1796.26 1224.68 1836.99 1240.13 L 1744.49 1464.79 C 1730.48 1457.13 1708.22 1444.41 1695.49 1435.62 C 1703.15 1414.19 1714.66 1388.15 1723.49 1366.74 L 1755.35 1289.12 L 1652.02 1246.71 C 1646.88 1260.9 1639.29 1277.99 1633.47 1292.14 L 1598.82 1375.97 L 1546.64 1354.46 C 1561.93 1313.41 1582.77 1266 1599.66 1225.09 C 1551.04 1204.98 1501.54 1185.26 1453.21 1164.63 C 1461.41 1142.85 1472.68 1115.6 1482.15 1094.35 z"/>
</svg>