<svg version="1.1" xmlns="http://www.w3.org/2000/svg" style="display: block;" viewBox="0 0 2048 2048" width="40" height="40" preserveAspectRatio="none">
<path transform="translate(0,0)" fill="rgb(0,0,0)" d="M 1040.97 686.418 C 1067.15 682.901 1103.1 692.473 1126.22 704.772 C 1163.71 724.788 1191.59 759.038 1203.57 799.817 C 1212.54 830.153 1209.69 858.361 1210.25 889.212 C 1210.92 926.892 1213.56 956.3 1169.44 968.819 C 1166.36 978.854 1164.29 985.573 1160.07 995.294 C 1184.26 995.442 1263.15 992.303 1281.15 997.752 C 1293.37 1001.45 1303.46 1010.63 1309.39 1021.81 C 1313.61 1029.77 1315.9 1039.05 1315.49 1048.07 C 1314.69 1065.51 1307.1 1084.57 1302.25 1101.27 L 1278.57 1182.5 C 1294.27 1203.55 1300.85 1217.75 1308.78 1242.7 C 1334.27 1243.77 1359.18 1235.64 1359.43 1272.03 C 1359.67 1307.34 1330.1 1300.76 1303.61 1300.76 L 1246.88 1300.76 L 1064.5 1300.71 L 859.783 1300.76 L 799.477 1300.76 C 787.063 1300.76 774.437 1301.09 761.961 1299.8 C 741.029 1297.63 739.752 1260.2 751.431 1248.69 C 759.913 1240.34 783.164 1242.73 794.865 1242.97 C 801.436 1220.04 810.216 1202.32 824.512 1183.44 C 817.121 1156.07 808.521 1128.91 801.236 1101.53 C 792.804 1069.84 775.774 1035.98 804.095 1008.55 C 809.833 1002.95 816.968 999.001 824.754 997.101 C 836.024 994.416 861.627 995.216 874.122 995.228 L 943.508 995.31 C 939.4 986.029 937.213 978.644 934.641 968.887 C 877.643 953.645 896.316 901.962 893.291 857.371 C 887.233 768.075 951.661 694.065 1040.97 686.418 z M 1053.5 995.316 L 1143.66 995.335 C 1163.49 956.7 1156.38 929.733 1157.59 887.616 C 1124.24 884.368 1097.8 879.007 1070.95 856.471 C 1063.32 850.066 1059.64 841.209 1050.69 838.891 C 1043.48 843.425 1038.6 851.865 1031.81 857.417 C 1005.57 878.889 978.874 883.92 946.285 888.01 C 946.109 926.273 941.638 961.032 959.764 995.1 C 991.008 995.416 1022.25 995.488 1053.5 995.316 z M 1129.25 1196.87 C 1136.24 1189.04 1167.59 1152.63 1169.48 1142.98 C 1171.09 1134.73 1135.82 1094.77 1128.7 1086.74 C 1126.45 1084.21 1118.84 1084.55 1114.99 1084.85 C 1098.69 1097.31 1108.03 1108.2 1118.57 1120.92 C 1124.29 1127.77 1129.91 1134.69 1135.42 1141.69 C 1127.42 1151.85 1104.92 1175.1 1106 1188.03 C 1106.84 1198.16 1119.86 1201.49 1129.25 1196.87 z M 984.554 1199.43 C 1010.48 1189.53 990.716 1170.12 980.144 1156.85 C 976.165 1151.86 972.064 1146.87 967.994 1141.97 C 975.271 1132.25 983.116 1123.14 990.559 1113.57 C 1002.7 1097.95 999.501 1082.5 976.743 1085.07 C 970.394 1090.37 934.583 1132.4 934.287 1141.28 C 933.945 1151.53 965.748 1187.31 974.209 1196.03 C 976.708 1198.61 980.994 1199.19 984.554 1199.43 z M 1046.07 1199.13 C 1050.85 1196.77 1054.18 1194.75 1055.96 1189.44 C 1059.56 1178.71 1078.42 1099.2 1075.23 1092.94 C 1073.31 1089.16 1069.9 1086.62 1065.83 1085.63 C 1062.89 1084.91 1059.97 1084.91 1056.96 1084.99 C 1052.35 1087.51 1049.14 1089.22 1047.71 1094.63 C 1042.79 1113.55 1038.53 1132.73 1034.18 1151.8 C 1031.81 1162.25 1028.54 1173.72 1027.7 1184.36 C 1026.76 1196.29 1036.13 1199.62 1046.07 1199.13 z M 829.52 1201.69 C 820.423 1215.06 814.998 1227.46 810.036 1242.88 L 822.5 1242.9 L 841.845 1242.9 C 840.26 1236.98 832.119 1204.68 829.52 1201.69 z M 918.216 945.562 C 923.994 950.009 925.645 950.723 932.178 953.729 C 932.044 944.108 933.099 896.524 931.277 890.271 L 929.854 889.877 C 905.461 901.759 901.053 924.773 918.216 945.562 z M 1273.49 1201.5 L 1261.42 1242.8 L 1284.25 1242.9 L 1293.61 1242.81 C 1290.53 1233.42 1281 1207.88 1273.49 1201.5 z M 1186.87 943.702 C 1193.2 935.598 1196.79 927.951 1195.51 917.3 C 1194.35 908.092 1189.41 899.781 1181.88 894.356 C 1178.83 892.118 1175.48 890.697 1172.03 889.181 C 1171.94 908.947 1172.51 933.913 1171.65 953.402 C 1178.06 950.609 1181.86 948.977 1186.87 943.702 z"/>
<path transform="translate(0,0)" fill="rgb(0,0,0)" d="M 1075.58 902.307 C 1098.22 871.164 1139.38 891.948 1132.12 927.294 C 1128.16 946.609 1109.58 953.119 1091.51 948.274 C 1075.5 940.174 1072.84 932.988 1070.72 916.266 C 1056.96 913.968 1046.85 914.383 1033.22 916.361 C 1030.08 938.406 1014.91 957.233 990.994 948.08 C 982.844 944.925 976.291 938.648 972.787 930.642 C 964.236 910.91 975.598 895.026 994.279 888.154 C 1011.23 886.27 1017.6 890.185 1028.43 902.312 C 1045.24 898.784 1058.86 899.13 1075.58 902.307 z"/>
<path transform="translate(0,0)" fill="rgb(0,0,0)" d="M 1243.94 1410.33 C 1277.79 1408.42 1304.71 1415.37 1332.77 1435.51 C 1389.27 1478.05 1423.78 1553.6 1436.45 1621.46 C 1454.03 1715.62 1408.87 1786.62 1313.25 1802.98 C 1279.88 1805.83 1251.32 1798.9 1223.4 1779.28 C 1167.95 1740.31 1130.64 1658.64 1118.38 1593.41 C 1110.5 1551.47 1114.32 1503.17 1139.86 1467.84 C 1164.61 1433.61 1203.49 1417.1 1243.94 1410.33 z M 1317.77 1742.71 C 1378.38 1726.66 1376.6 1676.23 1359.47 1624.79 C 1343.01 1575.35 1317.26 1506.88 1272.17 1477.07 C 1261.55 1470.71 1248.5 1469.93 1236.78 1471.29 C 1185.24 1481.3 1177.45 1524.36 1190.09 1569.73 C 1205.58 1625.3 1232.23 1699.45 1280.01 1735.27 C 1292.21 1743.68 1304.39 1743.7 1317.77 1742.71 z"/>
<path transform="translate(0,0)" fill="rgb(0,0,0)" d="M 473.514 1108.43 C 494.073 1107.1 517.192 1110.52 536.276 1118.3 C 594.989 1142.26 618.291 1193.56 641.344 1247.6 L 669.105 1312.79 L 414.732 1421.28 C 381.971 1434.75 348.751 1449.33 316.089 1463.22 C 294.027 1407.68 265.27 1356.61 258.412 1296.06 C 245.536 1182.37 376.722 1115.86 473.514 1108.43 z M 338.198 1371.09 L 398.751 1345.43 C 460.395 1319.08 525.446 1290.2 587.43 1265.13 C 563.73 1209.5 551.682 1182.1 484.999 1184.32 C 435.795 1190.73 364.795 1218.56 333.021 1258.63 C 303.036 1296.44 323.509 1333.04 338.198 1371.09 z"/>
<path transform="translate(0,0)" fill="rgb(0,0,0)" d="M 1745.39 577.921 C 1746.5 578.144 1745.71 577.932 1747.56 579.061 C 1754.93 594.314 1760.77 610.758 1767.44 626.099 C 1796.76 693.554 1827.55 774.152 1776.19 839.945 C 1738.58 888.132 1666.24 919.516 1606.54 928.904 C 1561.17 936.039 1522.62 925.44 1486.65 897.645 C 1449.45 863.329 1436.48 829.487 1417.54 783.928 C 1409.21 764.113 1401.04 744.232 1393.03 724.287 L 1745.39 577.921 z M 1474.14 772.898 C 1484.42 797.722 1491.6 820.61 1512.61 838.594 C 1537.35 855.387 1565.13 859.16 1593.97 852.068 C 1654.53 837.179 1761.79 797.532 1741.79 716.804 C 1739.61 707.996 1728.15 674.829 1723.61 669.154 C 1641.27 703.573 1556.79 739.79 1474.14 772.898 z"/>
<path transform="translate(0,0)" fill="rgb(0,0,0)" d="M 364.813 606.413 C 387.086 606.663 414.31 615.649 429.985 631.865 C 452.464 655.12 453.269 680.757 453.017 710.724 C 468.523 689.975 481.774 672.244 507.133 663.267 C 531.158 654.387 555.6 659.327 578.053 670.486 C 671.839 717.096 627.665 823.34 595.205 895.153 C 585.345 916.966 577.509 939.848 567.022 960.814 L 546.449 952.012 C 506.572 936.142 464.577 917.562 424.73 900.763 L 214.201 811.852 C 221.819 792.137 230.72 771.79 239.096 752.337 C 264.151 694.147 290.687 612.394 364.813 606.413 z M 437.636 823.32 L 513.898 855.5 L 544.699 868.343 C 562.011 827.972 598.325 763.266 538.089 738.767 C 528.567 734.895 519.851 733.258 509.669 732.341 C 473.808 736.525 464.032 760.6 451.171 790.535 C 446.518 801.365 441.994 812.361 437.636 823.32 z M 295.13 763.164 L 362.246 791.55 C 370.31 794.912 379.956 799.242 388.038 802.181 C 405.314 761.928 436.766 710.608 377.987 687.364 C 371.245 684.624 364.019 683.277 356.743 683.405 C 320.511 686.506 307.229 734.07 295.13 763.164 z"/>
<path transform="translate(0,0)" fill="rgb(0,0,0)" d="M 779.172 232.384 C 782.18 232.163 785.194 232.045 788.209 232.03 C 851.882 231.395 892.59 277.296 895.924 341.254 C 897.716 375.625 874.866 404.976 851.349 428.381 C 866.501 440.611 890.036 456.056 906.639 467.727 L 1010.32 540.605 C 986.633 551.851 955.158 563.685 930.258 574.049 C 884.436 540.264 834.35 499.385 788.214 467.502 C 782.411 469.687 758.811 478.022 756.698 482.234 C 762.703 498.663 770.86 517.267 777.562 533.599 L 813.861 621.627 C 791.295 630.95 766.26 641.86 743.584 650.244 C 736.995 635.225 730.336 618.771 724.377 603.469 C 684.33 500.649 637.372 398.727 598.303 295.69 C 614.862 288.062 635.483 280.242 652.572 273.208 C 696.474 255.137 731.132 238.438 779.172 232.384 z M 689.344 318.053 C 702.183 351.644 720.604 397.6 735.405 430.102 C 741.293 428.199 745.025 426.918 750.742 424.425 C 796.415 405.837 839.55 387.164 813.236 327.01 C 802.347 302.117 785.323 291.174 757.788 294.377 C 738.053 296.843 707.31 308.811 689.344 318.053 z"/>
<path transform="translate(0,0)" fill="rgb(0,0,0)" d="M 710.775 1371.42 C 716.89 1372.87 734.557 1380.35 740.839 1382.94 C 757.329 1389.75 774.649 1396.35 790.842 1403.61 C 793.948 1416.52 797.722 1447.23 799.822 1461.16 L 817.495 1578.55 C 826.668 1582.94 840.204 1588.03 849.899 1591.95 C 857.101 1576.49 864.408 1557.2 870.947 1541.11 L 907.598 1450.87 C 931.036 1460.11 954.361 1469.64 977.568 1479.44 C 946.812 1559.05 911.743 1641.79 879.5 1721.17 C 864.32 1758.98 848.926 1796.71 833.319 1834.35 C 814.357 1827.44 792.789 1818.13 773.804 1810.43 C 730.018 1792.5 690.402 1779.41 653.792 1747.68 C 605.958 1706.22 611.897 1638.62 651.993 1593.98 C 675.592 1567.71 711.051 1562.85 745.444 1562.32 C 742.817 1543.56 738.369 1523.25 735.06 1504.45 C 727.269 1460.19 718.039 1415.74 710.775 1371.42 z M 782.722 1754.53 C 786.295 1751.72 825.794 1653.52 829.554 1642.16 C 801.307 1629.57 776.421 1616.91 745.466 1619.34 C 713.773 1624.47 693.789 1663.7 697.488 1692.86 C 701.814 1726.96 755.948 1744.39 782.722 1754.53 z"/>
<path transform="translate(0,0)" fill="rgb(0,0,0)" d="M 1305.9 232.458 C 1314.17 233.239 1380.25 262.608 1392.34 267.7 C 1391.5 285.32 1388.99 306.622 1387.36 324.364 L 1378.01 426.018 C 1370.68 505.783 1364.15 588.459 1355.53 667.766 L 1281.25 636.753 L 1292.91 547.027 C 1273.71 537.892 1246.85 527.608 1226.73 519.25 C 1210.2 512.316 1193.14 504.891 1176.42 498.583 C 1159.77 517.442 1136.43 549.492 1120.62 569.836 L 1048.26 539.649 C 1131.82 437.335 1220.82 333.839 1305.9 232.458 z M 1211.03 450.275 C 1220.79 454.827 1229.8 458.554 1239.75 462.596 C 1259.46 470.86 1281.51 480.681 1301.39 487.949 C 1305.11 469.248 1326.46 312.34 1324.78 303.784 L 1211.03 450.275 z"/>
<path transform="translate(0,0)" fill="rgb(0,0,0)" d="M 1482.15 1094.57 C 1567.13 1128.26 1651.98 1165.3 1736.92 1199.35 C 1769.95 1212.59 1803.6 1227.58 1836.74 1240.14 L 1782.09 1373.17 C 1769.94 1402.72 1757.18 1435.74 1744.15 1464.69 C 1728.44 1455.54 1710.52 1445.61 1695.5 1435.67 C 1704.04 1413.23 1714.49 1389.12 1723.66 1366.76 L 1755.49 1289.34 C 1723.24 1275.13 1684.87 1259.75 1651.97 1246.79 C 1633.62 1288.69 1617.33 1334.28 1598.5 1375.73 L 1546.76 1354.44 C 1562.89 1311.74 1582.77 1267.87 1599.64 1224.97 C 1552.71 1207.24 1500.16 1184.12 1453.24 1164.81 C 1461.7 1142.41 1472.66 1116.67 1482.15 1094.57 z"/>
</svg>