<svg version="1.1" xmlns="http://www.w3.org/2000/svg" style="display: block;" viewBox="0 0 2048 2048" width="1024" height="1024" preserveAspectRatio="none">
<path transform="translate(0,0)" fill="rgb(86,184,0)" d="M 1039.72 686.415 C 1064.23 682.738 1099.54 691.241 1121.66 702.042 C 1159.88 720.78 1188.96 754.108 1202.34 794.519 C 1205.56 804.069 1207.76 813.932 1208.92 823.945 C 1212.6 854.382 1210.98 894.027 1210.28 925.12 C 1209.76 948.29 1190.91 962.418 1169.62 968.966 C 1166.73 979.031 1164.56 985.405 1160.64 995.113 C 1195.36 995.549 1230.16 994.732 1264.9 995.218 C 1299.15 995.698 1320.57 1023.4 1314.81 1056.52 C 1312.05 1072.35 1305.69 1090.61 1301.14 1106.21 C 1293.99 1131.61 1286.57 1156.93 1278.89 1182.17 C 1291.84 1199.99 1304.12 1221.11 1308.83 1242.83 C 1320.27 1242.84 1344.23 1240.15 1352.65 1248.63 C 1362.28 1258.32 1362.85 1284.36 1352.51 1294.2 C 1350.17 1296.43 1347.18 1299.27 1343.8 1299.51 C 1332.57 1300.81 1321.1 1300.47 1309.81 1300.47 L 1257.66 1300.47 L 1066.5 1300.43 L 864.784 1300.45 L 802.408 1300.46 C 774.673 1300.46 742.042 1308.49 743.98 1269.41 C 745.593 1236.87 769.929 1242.52 794.78 1242.81 C 800.464 1221.18 810.549 1200.95 824.404 1183.39 L 800.916 1101.37 C 791.955 1069.9 776.014 1036.13 803.46 1008.8 C 821.294 991.038 849.958 995.057 873.468 995.107 C 896.685 995.284 919.904 995.249 943.121 995.002 C 939.466 986.7 936.615 978.067 934.609 969.22 C 889.323 955.69 892.679 928.407 893.016 889.328 C 893.111 878.364 893.383 864.603 892.925 853.757 C 889.198 765.564 951.779 694.272 1039.72 686.415 z M 1053.5 995.183 C 1082.18 995.189 1115.57 994.327 1143.84 995.286 C 1162.81 953.084 1156.39 932.927 1157.31 887.309 C 1123.83 885.652 1090.12 876.351 1065.43 851.561 C 1061.04 847.152 1057.34 840.494 1051.32 838.557 C 1043.91 843.506 1038.63 852.185 1031.67 857.847 C 1007.25 877.721 977.807 885.705 946.785 887.475 C 946.563 926.912 941.812 960.086 960.237 995.192 L 1053.5 995.183 z M 1127.94 1197.48 C 1133.52 1192.14 1170.66 1149.08 1169.37 1141.22 C 1168.08 1133.35 1135.14 1092.94 1126.9 1085.69 C 1125.82 1084.74 1119.57 1084.13 1117.23 1084.06 C 1090.39 1100.09 1123.92 1124.87 1135.93 1141.99 C 1127.28 1152.43 1118.9 1162.38 1110.84 1173.27 C 1099.88 1188.11 1110.89 1204.6 1127.94 1197.48 z M 980.895 1199.57 C 1019.32 1194.45 978.082 1154.97 967.475 1141.57 C 978.078 1128.67 1018.9 1089.91 981.645 1083.88 C 979.169 1084.63 976.834 1085.43 974.856 1087.16 C 966.238 1094.7 942.142 1124.91 936.805 1135.17 C 935.084 1138.48 933.657 1141.72 935.029 1145.43 C 938.507 1154.84 971.453 1196.03 979.602 1199.15 C 980.025 1199.31 980.464 1199.43 980.895 1199.57 z M 1046.97 1198.97 C 1048.67 1197.81 1053.89 1194.36 1054.48 1192.38 C 1062.79 1164.26 1068.22 1134.86 1074.89 1106.24 C 1078.25 1091.77 1072.19 1084.19 1057.23 1084.95 C 1047.46 1090.95 1048.41 1092.64 1045.57 1104.48 L 1034.15 1153.82 C 1032.22 1162.26 1025.04 1185.96 1029.86 1192.99 C 1032.15 1196.32 1035.76 1198.51 1039.77 1199 C 1041.82 1199.27 1044.86 1199.08 1046.97 1198.97 z M 829.482 1201.78 C 821.54 1214.78 814.782 1228.21 810.252 1242.8 L 823.5 1242.83 L 841.734 1242.76 C 840.188 1237.52 831.054 1203.47 829.482 1201.78 z M 919.763 946.38 C 923.807 949.789 927.35 951.149 932.102 953.424 C 931.878 944.237 932.787 894.993 931.205 890.091 L 930.172 889.753 C 906.427 902.546 899.88 926.38 919.763 946.38 z M 1273.92 1201.55 C 1269.65 1214.94 1266.07 1229.91 1261.61 1242.77 L 1283.25 1242.84 L 1293.38 1242.85 C 1288.37 1227.2 1282.97 1215.33 1273.92 1201.55 z M 1185.85 944.377 C 1203.04 923.019 1196.61 900.636 1172.08 889.268 C 1172.11 910.255 1172.51 932.46 1171.95 953.353 C 1177.9 950.383 1180.68 948.93 1185.85 944.377 z"/>
<path transform="translate(0,0)" fill="rgb(86,184,0)" d="M 1075 902.139 C 1089.98 883.657 1114.31 880.26 1128.33 901.514 C 1133.16 908.808 1134.77 917.769 1132.78 926.285 C 1128.12 946.964 1110.66 952.859 1091.63 948.452 C 1078.2 941.507 1070.04 931.868 1070.67 915.963 C 1054.66 914.135 1049.85 914.119 1033.74 916.097 C 1030.68 938.63 1015.17 956.985 990.986 948.139 C 982.706 945.063 976.019 938.773 972.444 930.695 C 969.002 922.931 968.925 914.09 972.231 906.267 C 976.452 896.549 983.895 892.127 993.043 888.263 C 1009.19 886.604 1017.8 888.356 1028.03 901.955 C 1044.13 899.301 1059.01 898.665 1075 902.139 z"/>
<path transform="translate(0,0)" fill="rgb(86,184,0)" d="M 1242.69 1410.29 C 1270.86 1405.55 1311.07 1417.73 1332.96 1435.09 C 1445.34 1524.24 1511.05 1772.05 1313.08 1802.95 C 1279.7 1805.18 1253.53 1800.12 1225.14 1780.72 C 1168.49 1742.02 1130.66 1660.49 1118.08 1594.37 C 1109.84 1551.1 1114.22 1503.02 1140.25 1466.36 C 1163.79 1433.2 1203.88 1417.01 1242.69 1410.29 z M 1307.48 1743.24 C 1345.32 1742.06 1373.52 1711.91 1368.81 1673.53 C 1361.78 1616.27 1314.87 1474.98 1246.92 1470.37 C 1203.06 1473.79 1180.43 1501.77 1186.37 1545.78 C 1193.52 1598.84 1243.44 1742.32 1307.48 1743.24 z"/>
<path transform="translate(0,0)" fill="rgb(86,184,0)" d="M 1746.6 577.157 C 1753.3 585.622 1788.54 676.397 1792.95 690.623 C 1797.12 704.476 1800.3 718.605 1802.49 732.905 C 1819.4 850.926 1709.27 909.691 1608.8 928.644 C 1562.38 937.4 1522.6 925.19 1485.22 896.974 C 1445.33 857.4 1434.8 827.201 1413.69 775.154 C 1406.88 758.345 1399.01 741.39 1392.73 724.303 C 1404.18 718.254 1426.92 709.703 1439.8 704.368 L 1529.4 667.098 L 1665.71 610.451 C 1691.64 599.65 1720.54 586.861 1746.6 577.157 z M 1474.48 772.776 C 1485.17 797.697 1492.12 820.848 1513.58 838.752 C 1537.73 854.965 1565.31 858.965 1593.31 851.936 C 1653.05 836.934 1761.39 797.29 1741.48 717.142 C 1737.84 702.522 1730.11 682.342 1723.53 669.064 C 1711.95 674.989 1696.16 681.12 1683.94 686.173 L 1620.6 712.372 C 1574.64 731.486 1520.56 755.666 1474.48 772.776 z"/>
<path transform="translate(0,0)" fill="rgb(86,184,0)" d="M 472.017 1108.44 C 491.007 1106.24 516.102 1110.59 534.05 1117.06 C 613.112 1145.55 637.503 1241.64 669.615 1312.88 C 586.732 1349.36 500.012 1385.73 416.361 1420.96 C 383.318 1434.36 348.888 1449.58 316.061 1463.67 C 293.091 1409.85 264.907 1353.98 258.064 1295.38 C 244.959 1183.17 375.814 1115.05 472.017 1108.44 z M 338.468 1370.67 C 354.716 1363.75 378.482 1352.52 394.442 1346.93 C 432.096 1329.82 472.363 1313.66 510.607 1297.24 C 532.539 1287.82 565.9 1272.27 587.283 1264.96 C 572.33 1233.22 564.193 1201.98 526.83 1188.4 C 515.262 1184.2 498.283 1182.83 486.124 1184.37 C 457.421 1187.2 433.609 1196.05 407.604 1207.35 C 364.462 1226.1 313.238 1257.22 318.669 1311.46 C 320.98 1334.52 331.165 1349.85 338.468 1370.67 z"/>
<path transform="translate(0,0)" fill="rgb(86,184,0)" d="M 362.742 606.406 C 384.033 603.6 417.461 617.553 432.107 633.425 C 452.847 655.901 454.001 682.1 453.128 711.093 C 465.397 690.456 482.184 672.928 504.666 663.788 C 547.929 646.199 608.248 675.49 626.08 717.19 C 650.537 774.383 619.893 838.318 597.386 890.985 C 587.481 914.216 578.068 938.349 567.353 961.074 C 561.649 958.558 555.469 956.147 549.662 953.779 C 539.42 948.621 521.021 941.514 509.978 936.867 L 434.826 905.199 L 213.634 811.971 L 243.03 742.057 C 266.295 686.797 293.427 612.705 362.742 606.406 z M 437.817 823.187 L 487.18 843.951 C 495.361 847.402 507.813 853.091 515.737 855.701 C 525.358 860.068 534.674 863.874 544.404 867.927 C 557.71 839.691 577.967 798.736 567.868 767.793 C 560.369 744.817 532.137 733.29 509.609 732.422 C 471.7 736.143 461.699 767.509 448.686 797.975 C 445.115 806.337 441.483 814.856 437.817 823.187 z M 295.878 763.203 C 313.676 770.895 344.829 785.085 362.264 791.207 C 370.797 794.904 378.972 798.412 387.724 801.579 C 398.74 777.515 418.118 741.175 409.106 715.185 C 403.161 698.039 374.646 681.466 356.73 683.315 C 320.655 687.958 307.959 733.918 295.878 763.203 z"/>
<path transform="translate(0,0)" fill="rgb(86,184,0)" d="M 777.103 232.347 C 808.758 230.663 841.752 235.144 863.304 260.324 C 913.576 319.06 904.335 378.567 851.555 428.382 C 904.072 465.644 958.842 502.576 1010.65 540.549 C 1003.52 544.614 988.423 550.422 980.481 553.688 C 963.66 560.657 946.788 567.5 929.866 574.217 L 788.377 467.513 C 781.827 470.208 761.14 478.099 756.602 481.288 C 761.438 494.489 768.748 510.823 774.197 524.064 L 814.225 621.676 C 793.687 631.347 764.754 642.204 743.261 650.804 C 695.803 532.321 644.612 414.118 597.755 295.559 C 615.739 287.265 636.002 279.717 654.41 271.99 C 698.616 253.434 728.954 239.651 777.103 232.347 z M 689.654 318.101 C 704.912 355.5 720.753 392.952 735.646 430.46 L 749.744 424.348 C 773.305 414.68 805.887 403.356 817.04 378.031 C 826.378 356.827 815.833 325.044 801.011 308.532 C 789.194 295.367 775.201 292.315 758.464 294.357 C 737.51 296.804 709.097 309.112 689.654 318.101 z"/>
<path transform="translate(0,0)" fill="rgb(86,184,0)" d="M 710.52 1371.23 C 719.477 1373.14 782.436 1399.04 791.618 1403.85 C 799.658 1461.82 810.205 1520.32 817.681 1578.32 C 826.097 1582.5 840.885 1588.08 849.917 1591.77 L 886.504 1501.57 C 892.656 1486.38 900.549 1465.13 907.56 1450.73 C 925.902 1457.09 959.911 1471.04 977.888 1479.33 C 971.228 1500.24 953.521 1540.37 944.855 1561.71 L 878.996 1723.61 C 865.282 1759.27 848.697 1799.69 833.663 1834.84 L 767.647 1808.13 C 709.377 1784.49 621.04 1753.86 619.36 1677.02 C 618.732 1648.3 631.993 1614.28 651.944 1593.38 C 677.004 1567.14 710.093 1562.6 744.817 1562.09 C 743.858 1550.9 739.033 1528.25 736.791 1516.09 L 719.991 1424.99 C 716.921 1408.46 712.326 1387.6 710.52 1371.23 z M 782.791 1754.33 C 786.008 1751.26 824.73 1653.77 829.476 1642.29 C 802.376 1630.57 776.018 1616.65 746.418 1619.2 C 732.644 1621.56 720.462 1628.92 712.948 1640.84 C 667.775 1712.51 728.878 1733.24 782.791 1754.33 z"/>
<path transform="translate(0,0)" fill="rgb(86,184,0)" d="M 1306.39 231.621 C 1321.59 237.038 1339.66 245.421 1354.9 251.491 C 1364.02 255.127 1385.23 263.58 1393.04 268.106 C 1391.16 294.542 1387.93 323.003 1385.49 349.56 L 1370.25 515.458 L 1361.16 614.892 C 1359.66 631.018 1358.25 652.408 1355.87 668.002 L 1307.89 648.23 C 1300.97 645.372 1286.48 639.868 1280.71 636.007 C 1285.81 607.98 1287.34 575.908 1292.77 547.399 C 1273.43 537.975 1246.32 527.465 1225.96 519.158 C 1210.35 512.89 1191.94 505.324 1176.74 498.37 C 1161.82 517.705 1135.98 553.232 1120.53 569.903 C 1099.23 562.352 1068.88 548.523 1047.45 539.484 C 1064.72 520.475 1084.85 494.735 1101.77 474.635 L 1231.74 319.939 C 1255.77 291.286 1281.51 259.155 1306.39 231.621 z M 1211.3 450.06 C 1220.44 454.84 1229.92 457.584 1238.69 461.85 C 1259.68 470.188 1280.37 479.394 1301.28 487.846 C 1303.95 468.722 1326.51 310.431 1324.24 304.645 C 1302.92 332.924 1281.3 360.982 1259.4 388.815 C 1244.5 408.026 1226.97 431.735 1211.3 450.06 z"/>
<path transform="translate(0,0)" fill="rgb(86,184,0)" d="M 1482.02 1094.41 C 1492.52 1097.62 1511.02 1105.87 1521.5 1110.21 L 1591.28 1138.94 L 1837.05 1240.06 C 1821.41 1278.85 1805.56 1317.55 1789.51 1356.18 C 1774.7 1392.19 1759.88 1429.47 1744.42 1465.13 C 1733.34 1459.06 1704.65 1442.69 1694.94 1435.41 C 1704.22 1412.65 1715.5 1387.25 1723.92 1364.46 C 1734.94 1342.15 1743.92 1312.67 1755.52 1289.5 C 1750.39 1287.1 1744.55 1284.77 1739.27 1282.68 C 1710.08 1271.14 1681.14 1257.99 1651.78 1246.97 C 1649.42 1255.98 1636.06 1287.31 1631.43 1298 C 1620.82 1322.5 1610.22 1352.52 1598.85 1375.98 C 1581.43 1369.09 1563.46 1361.08 1545.98 1354.71 C 1564.19 1312.44 1581.73 1268.01 1599.42 1225.35 C 1553.47 1204.08 1499.88 1185.81 1452.92 1164.55 C 1460.48 1144.67 1473.29 1113.35 1482.02 1094.41 z"/>
</svg>